<svg width="192" height="192" viewBox="0 0 192 192" fill="none" xmlns="http://www.w3.org/2000/svg">
<g clip-path="url(#clip0_2368_4916)">
<path fill-rule="evenodd" clip-rule="evenodd" d="M147.211 89.5789C140.785 89.5789 135.386 85.1844 133.855 79.2368H118.05C114.68 79.2368 111.804 81.6736 111.25 84.9981L110.683 88.3986C110.145 91.6271 108.512 94.4371 106.202 96.4737C108.512 98.5103 110.145 101.32 110.683 104.549L111.25 107.949C111.804 111.274 114.68 113.711 118.05 113.711H120.066C121.597 107.763 126.996 103.368 133.421 103.368C141.037 103.368 147.211 109.542 147.211 117.158C147.211 124.774 141.037 130.947 133.421 130.947C126.996 130.947 121.597 126.553 120.066 120.605H118.05C111.31 120.605 105.557 115.732 104.449 109.083L103.882 105.682C103.328 102.358 100.452 99.921 97.0812 99.921H91.6183C90.0876 105.869 84.6885 110.263 78.2632 110.263C71.8378 110.263 66.4389 105.869 64.9081 99.921H57.1445C55.6137 105.869 50.2148 110.263 43.7895 110.263C36.1738 110.263 30 104.089 30 96.4737C30 88.858 36.1738 82.6842 43.7895 82.6842C50.2148 82.6842 55.6137 87.0788 57.1445 93.0263H64.9081C66.4389 87.0788 71.8378 82.6842 78.2632 82.6842C84.6885 82.6842 90.0876 87.0788 91.6183 93.0263H97.0812C100.452 93.0263 103.328 90.5896 103.882 87.2651L104.449 83.8646C105.557 77.2155 111.31 72.3421 118.05 72.3421H133.855C135.386 66.3946 140.785 62 147.211 62C154.826 62 161 68.1738 161 75.7895C161 83.4052 154.826 89.5789 147.211 89.5789ZM147.211 82.6842C151.018 82.6842 154.105 79.5973 154.105 75.7895C154.105 71.9816 151.018 68.8947 147.211 68.8947C143.403 68.8947 140.316 71.9816 140.316 75.7895C140.316 79.5973 143.403 82.6842 147.211 82.6842ZM43.7895 103.368C47.5973 103.368 50.6842 100.282 50.6842 96.4737C50.6842 92.6658 47.5973 89.5789 43.7895 89.5789C39.9816 89.5789 36.8947 92.6658 36.8947 96.4737C36.8947 100.282 39.9816 103.368 43.7895 103.368ZM85.1579 96.4737C85.1579 100.282 82.071 103.368 78.2632 103.368C74.4553 103.368 71.3684 100.282 71.3684 96.4737C71.3684 92.6658 74.4553 89.5789 78.2632 89.5789C82.071 89.5789 85.1579 92.6658 85.1579 96.4737ZM140.316 117.158C140.316 120.966 137.229 124.053 133.421 124.053C129.613 124.053 126.526 120.966 126.526 117.158C126.526 113.35 129.613 110.263 133.421 110.263C137.229 110.263 140.316 113.35 140.316 117.158Z" fill="#EA4B71" style="fill:#EA4B71;fill:color(display-p3 0.9176 0.2941 0.4431);fill-opacity:1;"/>
</g>
<defs>
<clipPath id="clip0_2368_4916">
<rect width="131" height="68.9474" fill="white" style="fill:white;fill-opacity:1;" transform="translate(30 62)"/>
</clipPath>
</defs>
</svg>
